<svg xmlns="http://www.w3.org/2000/svg" width="120" height="120" viewBox="0 0 301 239"><title>JSS logo</title><path fill="#E0E0E0" d="M239 239H0V0h239v239zM12 227h215V12H12v215z"/><path fill="#FFF" d="M148.204 186.157c4.774 7.795 10.985 13.524 21.97 13.524 9.227 0 15.122-4.612 15.122-10.985 0-7.636-6.056-10.341-16.214-14.784l-5.567-2.389c-16.071-6.846-26.747-15.423-26.747-33.556 0-16.703 12.726-29.418 32.615-29.418 14.16 0 24.34 4.928 31.676 17.832l-17.343 11.135c-3.818-6.847-7.937-9.544-14.333-9.544-6.523 0-10.657 4.138-10.657 9.544 0 6.68 4.138 9.386 13.693 13.524l5.568 2.385c18.922 8.114 29.606 16.387 29.606 34.986 0 20.05-15.751 31.035-36.904 31.035-20.683 0-34.046-9.856-40.584-22.774l18.099-10.515zm80.339 0c4.774 7.795 10.985 13.524 21.97 13.524 9.227 0 15.122-4.612 15.122-10.985 0-7.636-6.056-10.341-16.214-14.784l-5.567-2.389c-16.071-6.846-26.747-15.423-26.747-33.556 0-16.703 12.726-29.418 32.615-29.418 14.16 0 24.34 4.928 31.676 17.832l-17.343 11.135c-3.818-6.847-7.937-9.544-14.333-9.544-6.523 0-10.657 4.138-10.657 9.544 0 6.68 4.138 9.386 13.693 13.524l5.568 2.385c18.922 8.114 29.606 16.387 29.606 34.986 0 20.05-15.751 31.035-36.904 31.035-20.683 0-34.046-9.856-40.584-22.774l18.099-10.515zm-159.012 1.93c3.499 6.207 6.681 11.455 14.333 11.455 7.317 0 11.933-2.863 11.933-13.994V109.82h22.27v76.028c0 23.06-13.52 33.556-33.255 33.556-17.831 0-28.158-9.228-33.41-20.343l18.13-10.975-.001.001z"/></svg>